<svg xmlns="http://www.w3.org/2000/svg" width="42" height="16" fill="none"><path fill="#000" d="M4 0h38v8H4z"/><g filter="url(#a)"><path stroke="#FF003C" stroke-width="2" d="M5 0v8"/></g><path fill="#F8EF00" d="m15 7-1.3-2.5h-1.3v2.4l-.2.1h-.4V1.3H14c.5 0 .8.1 1.1.4.3.3.4.7.4 1.1 0 .4 0 .7-.3 1-.2.3-.4.4-.8.5L15.5 7V7H15Zm-2.6-5.1v2h1.4c.3 0 .6 0 .8-.2.2-.2.3-.4.3-.8a1 1 0 0 0-1-1h-1.5Zm6.3 4.6h2.6V7H18v-.5L19.2 5l.6-.8c.5-.6.8-1 .8-1.4 0-.3-.1-.5-.3-.7a1 1 0 0 0-.8-.3 1 1 0 0 0-.7.3c-.2.2-.3.4-.3.7V3H18v-.4c0-.4.1-.7.4-1 .3-.2.7-.4 1.1-.4l.9.2a1.4 1.4 0 0 1 .8 1.3c0 .4-.3 1-.8 1.6l-1.5 1.9-.2.2Zm8.3-2A3.6 3.6 0 0 1 27 6c0 .4-.2.7-.5.9-.3.2-.6.3-1 .3s-.7-.1-1-.3L24 6v-.4h.5v.2c0 .2.2.4.4.6l.6.2a1 1 0 0 0 1-.8v-1c0-.3-.2-.5-.3-.6a1 1 0 0 0-.7-.2c-.2 0-.4 0-.6.2-.2 0-.3.2-.4.4H24V1.4h2.8V2h-2.3v2l.5-.3.6-.1c.3 0 .7 0 1 .3.2.2.4.4.4.8Z"/><defs><filter id="a" width="10" height="16" x="0" y="0" color-interpolation-filters="sRGB" filterUnits="userSpaceOnUse"><feFlood flood-opacity="0" result="BackgroundImageFix"/><feColorMatrix in="SourceAlpha" result="hardAlpha" values="0 0 0 0 0 0 0 0 0 0 0 0 0 0 0 0 0 0 127 0"/><feOffset dy="4"/><feGaussianBlur stdDeviation="2"/><feComposite in2="hardAlpha" operator="out"/><feColorMatrix values="0 0 0 0 0 0 0 0 0 0 0 0 0 0 0 0 0 0 0.25 0"/><feBlend in2="BackgroundImageFix" result="effect1_dropShadow_211_80"/><feBlend in="SourceGraphic" in2="effect1_dropShadow_211_80" result="shape"/></filter></defs></svg>